<svg xmlns="http://www.w3.org/2000/svg" viewBox="0 0 800 800">
<defs>
<linearGradient id="gBg" x1="0" y1="0" x2="0" y2="1"><stop offset="0" stop-color="#0d101f"/><stop offset="1" stop-color="#070910"/></linearGradient>
<linearGradient id="gScreen" x1="0" y1="0" x2="0" y2="1"><stop offset="0" stop-color="#141a30"/><stop offset="1" stop-color="#0a0d1c"/></linearGradient>
<linearGradient id="gMetal" x1="0" y1="0" x2="0" y2="1"><stop offset="0" stop-color="#262e4a"/><stop offset="1" stop-color="#141a2e"/></linearGradient>
<radialGradient id="gz1"><stop offset="0" stop-color="#a78bfa" stop-opacity="0.5"/><stop offset="1" stop-color="#a78bfa" stop-opacity="0"/></radialGradient>
</defs>
<rect width="800" height="800" fill="url(#gBg)"/>
<ellipse cx="400" cy="420" rx="250" ry="160" fill="url(#gz1)"/>
<rect x="225" y="345" width="350" height="115" rx="10" fill="url(#gMetal)" stroke="#a78bfa" stroke-opacity="0.6" stroke-width="2"/>
<rect x="255.0" y="372.0" width="63.3" height="26.0" rx="4" fill="url(#gScreen)"/><rect x="328.3" y="372.0" width="63.3" height="26.0" rx="4" fill="url(#gScreen)"/><rect x="401.7" y="372.0" width="63.3" height="26.0" rx="4" fill="url(#gScreen)"/><rect x="255.0" y="408.0" width="63.3" height="26.0" rx="4" fill="url(#gScreen)"/><rect x="328.3" y="408.0" width="63.3" height="26.0" rx="4" fill="url(#gScreen)"/><rect x="401.7" y="408.0" width="63.3" height="26.0" rx="4" fill="url(#gScreen)"/>
<rect x="480" y="372" width="62" height="62" rx="8" fill="#a78bfa" opacity="0.2"/>
<rect x="225" y="345" width="350" height="8" rx="4" fill="#a78bfa" opacity="0.45"/>
</svg>