<svg xmlns="http://www.w3.org/2000/svg" viewBox="0 0 800 800">
<defs>
<linearGradient id="gBg" x1="0" y1="0" x2="0" y2="1"><stop offset="0" stop-color="#0d101f"/><stop offset="1" stop-color="#070910"/></linearGradient>
<linearGradient id="gScreen" x1="0" y1="0" x2="0" y2="1"><stop offset="0" stop-color="#141a30"/><stop offset="1" stop-color="#0a0d1c"/></linearGradient>
<linearGradient id="gMetal" x1="0" y1="0" x2="0" y2="1"><stop offset="0" stop-color="#262e4a"/><stop offset="1" stop-color="#141a2e"/></linearGradient>
<radialGradient id="gz1"><stop offset="0" stop-color="#22d3ee" stop-opacity="0.5"/><stop offset="1" stop-color="#22d3ee" stop-opacity="0"/></radialGradient>
</defs>
<rect width="800" height="800" fill="url(#gBg)"/>
<ellipse cx="400" cy="375" rx="303.8" ry="95" fill="url(#gz1)"/>
<rect x="155" y="295" width="490" height="140" rx="14" fill="url(#gMetal)" stroke="#22d3ee" stroke-opacity="0.6" stroke-width="2"/>
<rect x="171.0" y="311.0" width="23.0" height="16.0" rx="4" fill="url(#gScreen)"/><rect x="200.0" y="311.0" width="23.0" height="16.0" rx="4" fill="url(#gScreen)"/><rect x="229.0" y="311.0" width="23.0" height="16.0" rx="4" fill="url(#gScreen)"/><rect x="258.0" y="311.0" width="23.0" height="16.0" rx="4" fill="url(#gScreen)"/><rect x="287.0" y="311.0" width="23.0" height="16.0" rx="4" fill="url(#gScreen)"/><rect x="316.0" y="311.0" width="23.0" height="16.0" rx="4" fill="url(#gScreen)"/><rect x="345.0" y="311.0" width="23.0" height="16.0" rx="4" fill="url(#gScreen)"/><rect x="374.0" y="311.0" width="23.0" height="16.0" rx="4" fill="url(#gScreen)"/><rect x="403.0" y="311.0" width="23.0" height="16.0" rx="4" fill="url(#gScreen)"/><rect x="432.0" y="311.0" width="23.0" height="16.0" rx="4" fill="url(#gScreen)"/><rect x="461.0" y="311.0" width="23.0" height="16.0" rx="4" fill="url(#gScreen)"/><rect x="490.0" y="311.0" width="23.0" height="16.0" rx="4" fill="url(#gScreen)"/><rect x="519.0" y="311.0" width="23.0" height="16.0" rx="4" fill="url(#gScreen)"/><rect x="548.0" y="311.0" width="23.0" height="16.0" rx="4" fill="url(#gScreen)"/><rect x="577.0" y="311.0" width="23.0" height="16.0" rx="4" fill="url(#gScreen)"/><rect x="606.0" y="311.0" width="23.0" height="16.0" rx="4" fill="url(#gScreen)"/><rect x="171.0" y="333.0" width="23.0" height="16.0" rx="4" fill="url(#gScreen)"/><rect x="200.0" y="333.0" width="23.0" height="16.0" rx="4" fill="url(#gScreen)"/><rect x="229.0" y="333.0" width="23.0" height="16.0" rx="4" fill="url(#gScreen)"/><rect x="258.0" y="333.0" width="23.0" height="16.0" rx="4" fill="url(#gScreen)"/><rect x="287.0" y="333.0" width="23.0" height="16.0" rx="4" fill="url(#gScreen)"/><rect x="316.0" y="333.0" width="23.0" height="16.0" rx="4" fill="url(#gScreen)"/><rect x="345.0" y="333.0" width="23.0" height="16.0" rx="4" fill="url(#gScreen)"/><rect x="374.0" y="333.0" width="23.0" height="16.0" rx="4" fill="url(#gScreen)"/><rect x="403.0" y="333.0" width="23.0" height="16.0" rx="4" fill="url(#gScreen)"/><rect x="432.0" y="333.0" width="23.0" height="16.0" rx="4" fill="url(#gScreen)"/><rect x="461.0" y="333.0" width="23.0" height="16.0" rx="4" fill="url(#gScreen)"/><rect x="490.0" y="333.0" width="23.0" height="16.0" rx="4" fill="url(#gScreen)"/><rect x="519.0" y="333.0" width="23.0" height="16.0" rx="4" fill="url(#gScreen)"/><rect x="548.0" y="333.0" width="23.0" height="16.0" rx="4" fill="url(#gScreen)"/><rect x="577.0" y="333.0" width="23.0" height="16.0" rx="4" fill="url(#gScreen)"/><rect x="606.0" y="333.0" width="23.0" height="16.0" rx="4" fill="url(#gScreen)"/><rect x="171.0" y="355.0" width="23.0" height="16.0" rx="4" fill="url(#gScreen)"/><rect x="200.0" y="355.0" width="23.0" height="16.0" rx="4" fill="url(#gScreen)"/><rect x="229.0" y="355.0" width="23.0" height="16.0" rx="4" fill="url(#gScreen)"/><rect x="258.0" y="355.0" width="23.0" height="16.0" rx="4" fill="url(#gScreen)"/><rect x="287.0" y="355.0" width="23.0" height="16.0" rx="4" fill="url(#gScreen)"/><rect x="316.0" y="355.0" width="23.0" height="16.0" rx="4" fill="url(#gScreen)"/><rect x="345.0" y="355.0" width="23.0" height="16.0" rx="4" fill="url(#gScreen)"/><rect x="374.0" y="355.0" width="23.0" height="16.0" rx="4" fill="url(#gScreen)"/><rect x="403.0" y="355.0" width="23.0" height="16.0" rx="4" fill="url(#gScreen)"/><rect x="432.0" y="355.0" width="23.0" height="16.0" rx="4" fill="url(#gScreen)"/><rect x="461.0" y="355.0" width="23.0" height="16.0" rx="4" fill="url(#gScreen)"/><rect x="490.0" y="355.0" width="23.0" height="16.0" rx="4" fill="url(#gScreen)"/><rect x="519.0" y="355.0" width="23.0" height="16.0" rx="4" fill="url(#gScreen)"/><rect x="548.0" y="355.0" width="23.0" height="16.0" rx="4" fill="url(#gScreen)"/><rect x="577.0" y="355.0" width="23.0" height="16.0" rx="4" fill="url(#gScreen)"/><rect x="606.0" y="355.0" width="23.0" height="16.0" rx="4" fill="url(#gScreen)"/><rect x="171.0" y="377.0" width="23.0" height="16.0" rx="4" fill="url(#gScreen)"/><rect x="200.0" y="377.0" width="23.0" height="16.0" rx="4" fill="url(#gScreen)"/><rect x="229.0" y="377.0" width="23.0" height="16.0" rx="4" fill="url(#gScreen)"/><rect x="258.0" y="377.0" width="23.0" height="16.0" rx="4" fill="url(#gScreen)"/><rect x="287.0" y="377.0" width="23.0" height="16.0" rx="4" fill="url(#gScreen)"/><rect x="316.0" y="377.0" width="23.0" height="16.0" rx="4" fill="url(#gScreen)"/><rect x="345.0" y="377.0" width="23.0" height="16.0" rx="4" fill="url(#gScreen)"/><rect x="374.0" y="377.0" width="23.0" height="16.0" rx="4" fill="url(#gScreen)"/><rect x="403.0" y="377.0" width="23.0" height="16.0" rx="4" fill="url(#gScreen)"/><rect x="432.0" y="377.0" width="23.0" height="16.0" rx="4" fill="url(#gScreen)"/><rect x="461.0" y="377.0" width="23.0" height="16.0" rx="4" fill="url(#gScreen)"/><rect x="490.0" y="377.0" width="23.0" height="16.0" rx="4" fill="url(#gScreen)"/><rect x="519.0" y="377.0" width="23.0" height="16.0" rx="4" fill="url(#gScreen)"/><rect x="548.0" y="377.0" width="23.0" height="16.0" rx="4" fill="url(#gScreen)"/><rect x="577.0" y="377.0" width="23.0" height="16.0" rx="4" fill="url(#gScreen)"/><rect x="606.0" y="377.0" width="23.0" height="16.0" rx="4" fill="url(#gScreen)"/>
<rect x="171" y="399" width="458" height="20" rx="6" fill="#22d3ee" opacity="0.3"/>
</svg>